' Preview durch <Alt>d

@startuml Anwendungskern

interface Promise<T>

package @nestjs/common {
  class "@Injectable" as Injectable
  hide Injectable circle
}

package typeorm {
  class Repository<T>
}

package @nestjs/typeorm {
  class "@InjectRepository" as InjectRepository
  hide InjectRepository circle
}

package videospiel {
  package entity {
    class Videospiel
  }

  package service #DDDDDD {
    class QueryBuilder

    class VideospielReadService << control >> <<@Injectable()>> {
      + async findById(id: string): Promise<Videospiel | undefined>
      + async find(suchkriterien?: Record<string, any>): Promise<Videospiel[]>
    }

    VideospielReadService o--> "1" QueryBuilder: queryBuilder
    VideospielReadService o--> "1" Repository: @InjectRepository repo

    VideospielReadService .up.> Injectable
    VideospielReadService .up.> InjectRepository

    VideospielReadService .up.> Promise
    VideospielReadService ..> Videospiel

    QueryBuilder .[hidden].> Repository
    QueryBuilder .[hidden].> Videospiel
  }
}

hide empty members

footer (c) Alexander Würtenberger, Anton Schlechter, Pascal Purrucker, Kenan Dilmen

@enduml
